<svg xmlns="http://www.w3.org/2000/svg" xmlns:xlink="http://www.w3.org/1999/xlink"><defs><symbol viewBox="0 0 11 32" id="arrow-right">
<title>arrow-right</title>
<path d="M2.79 30.849l8.037-14.964-8.037-14.945c-0.293-0.544-0.971-0.748-1.515-0.455-0.542 0.293-0.746 0.968-0.455 1.513l7.471 13.888-7.469 13.904c-0.293 0.544-0.089 1.222 0.455 1.513 0.542 0.296 1.219 0.092 1.513-0.453z" />
</symbol><symbol viewBox="0 0 32 32" id="broccoli">
<title>broccoli</title>
<path d="M30.729 12.17c0.318-0.58 0.602-1.353 0.17-1.954-0.276-0.396-0.799-0.375-1.223-0.322 0.159-0.56 0.072-1.244-0.426-1.605-0.359-0.32-0.884-0.183-1.255 0.036 0.258-0.62 0.050-1.325-0.521-1.677 0.379-0.598 0.656-1.431 0.204-2.064-0.315-0.431-0.901-0.427-1.371-0.325 0.216-0.692 0.018-1.577-0.7-1.88-0.704-0.252-1.35 0.268-1.721 0.819-0.036-0.299-0.12-0.613-0.387-0.78-0.624-0.435-1.44-0.264-2.148-0.209 0.433-0.839-0.305-1.782-1.172-1.826-0.724-0.079-1.377 0.316-1.872 0.805-0.081-0.726-0.915-0.96-1.531-0.963-0.712-0.058-1.51 0.267-1.733 0.995-1.065-0.789-2.625 0.214-2.73 1.435-0.58 0.166-1.020 0.62-1.204 1.191-0.631-1.199-2.855-0.662-2.668 0.759-0.57-0.336-1.269-0.039-1.561 0.517-0.312 0.417-0.194 0.967-0.385 1.427-0.153-0.812-1.268-1.255-1.824-0.56-0.608-0.705-1.695-0.020-1.756 0.782-0.696 0.11-1.265 0.952-0.752 1.567-0.141 0.283-0.344 0.639-0.107 0.935 0.172 0.299 0.551 0.317 0.844 0.428-0.121 0.354-0.283 0.699-0.318 1.080-0.399-0.153-0.887-0.142-1.188 0.197-0.501 0.446-0.511 1.212-0.185 1.768-0.783 0.578-0.627 2.050 0.416 2.22-0.011 0.382 0.070 0.805 0.408 1.040 0.423 0.33 0.993 0.181 1.454 0.023 0.164 0.457 0.486 0.97 1.025 1 0.506-0.013 0.802-0.486 1.008-0.884 0.297 0.523 0.85 1.015 1.493 0.888 0.488-0.087 0.678-0.599 0.79-1.017 1.203 0.64 2.025 1.826 2.625 3.018 0.883 1.833 1.84 3.938 1.889 5.952 0.121 2.264 0.263 4.534 0.451 6.794 2.413 0.005 3.798-0.003 6.214 0 0.182-2.154 0.051-4.374 0.161-6.536 0.035-1.32 0.437-2.832 1.327-5.275 0.664-1.866 1.937-3.621 3.803-4.418 0.042 0.509 0.107 1.181 0.641 1.412 0.56 0.105 0.949-0.431 1.252-0.817 0.031 0.616 0.328 1.365 1.004 1.494 0.588 0.056 0.895-0.541 1.118-0.984 0.305 0.284 0.764 0.424 1.146 0.196 0.62-0.337 0.719-1.102 0.827-1.726 0.573-0.546 1.072-1.28 1.017-2.109-0.004-0.372-0.287-0.631-0.549-0.847zM9.577 14.114c0.237-0.473 0.448-1.048 0.212-1.561-0.135-0.318-0.481-0.425-0.774-0.54 0.033-0.156 0.065-0.311 0.096-0.463 0.091-0.018 0.269-0.056 0.359-0.075 0.188 0.532 0.72 0.382 1.335 0.503 0.946 0.076 0.494 0.219 0.966-0.257 0.867 1.674 1.424 3.845 1.539 5.745-1.115-1.242-2.131-2.702-3.733-3.352zM16.118 12.622c-0.255 0.677-0.672 1.731-0.998 2.383-0.275-0.948-1.376-2.453-1.288-3.477 0.459 0.132 1.694 0.172 2.125-0.032 0.089 0.283 0.316 0.837 0.161 1.126zM18.805 15.034c-0.131 0.295-0.29 0.672-0.653 0.719-0.378 0.026-0.486-0.439-0.507-0.729-0.017-0.852 0.021-2.586 0.244-3.399 0.341 0.15 0.79 0.638 1.159 0.452 0.395-0.19 0.354-0.097 0.612-0.483l0.379 0.165c-0.41 1.092-0.799 2.194-1.234 3.277zM22.943 15.037c-0.583 0.356-1.312 0.279-1.976 0.482 0.354-1.019 1.1-2.764 1.493-3.765 0.069 0.441 0.895 1.386 1.288 1.642-0.063 0.252-0.756 1.379-0.805 1.642z" />
</symbol></defs></svg>